<?xml version="1.0" standalone="no"?>
<svg viewBox="0 0 200 200" xmlns="http://www.w3.org/2000/svg">
  <path fill="#14B8A6" d="M27.8,-39.8C40.8,-40.6,59.5,-42.9,68.4,-36.5C77.2,-30.1,76.2,-15.1,72.8,-2C69.4,11.1,63.6,22.2,54.3,27.9C45.1,33.6,32.3,33.8,22.7,39.4C13.1,45,6.5,56,-1.5,58.6C-9.6,61.3,-19.1,55.5,-29.2,50.1C-39.4,44.8,-50,39.9,-56.5,31.7C-62.9,23.4,-65,11.7,-68.3,-1.9C-71.6,-15.5,-76.1,-31,-69.8,-39.4C-63.4,-47.8,-46.2,-49.1,-32.8,-48C-19.4,-47,-9.7,-43.6,-1.2,-41.6C7.4,-39.6,14.7,-38.9,27.8,-39.8Z" transform="translate(100 100)" />
</svg>
